HIERARCHY
ROOT Hips
{
	OFFSET -3.958830 18.904000 13.208200
	CHANNELS 6 Xposition Yposition Zposition Zrotation Yrotation Xrotation 
	JOINT LHipJoint
	{
		OFFSET 0.000000 0.000000 0.000000
		CHANNELS 3 Zrotation Yrotation Xrotation
		JOINT LeftUpLeg
		{
			OFFSET 1.800000 -1.400000 0.085000
			CHANNELS 3 Zrotation Yrotation Xrotation
			JOINT LeftLeg
			{
				OFFSET 2.215000 -6.000000 0.000000
				CHANNELS 3 Zrotation Yrotation Xrotation
				JOINT LeftFoot
				{
					OFFSET 2.500000 -6.900000 0.000000
					CHANNELS 3 Zrotation Yrotation Xrotation
					JOINT LeftToeBase
					{
						OFFSET 0.200000 -0.500000 1.950000
						CHANNELS 3 Zrotation Yrotation Xrotation
						End Site
						{
							OFFSET 0.000000 0.000000 0.000000
						}
					}
				}
			}
		}
	}
	JOINT RHipJoint
	{
		OFFSET 0.000000 0.000000 0.000000
		CHANNELS 3 Zrotation Yrotation Xrotation
		JOINT RightUpLeg
		{
			OFFSET -1.800000 -1.400000 0.085000
			CHANNELS 3 Zrotation Yrotation Xrotation
			JOINT RightLeg
			{
				OFFSET -2.215000 -6.000000 0.000000
				CHANNELS 3 Zrotation Yrotation Xrotation
				JOINT RightFoot
				{
					OFFSET -2.500000 -6.900000 0.000000
					CHANNELS 3 Zrotation Yrotation Xrotation
					JOINT RightToeBase
					{
						OFFSET -0.200000 -0.500000 1.950000
						CHANNELS 3 Zrotation Yrotation Xrotation
						End Site
						{
							OFFSET 0.000000 0.000000 0.000000
						}
					}
				}
			}
		}
	}
	JOINT LowerBack
	{
		OFFSET 0.000000 0.000000 0.000000
		CHANNELS 3 Zrotation Yrotation Xrotation
		JOINT Spine
		{
			OFFSET -0.087000 1.940000 -0.288900
			CHANNELS 3 Zrotation Yrotation Xrotation
			JOINT Spine1
			{
				OFFSET 0.000000 1.950000 0.060000
				CHANNELS 3 Zrotation Yrotation Xrotation
				JOINT Neck
				{
					OFFSET 0.000000 0.000000 0.000000
					CHANNELS 3 Zrotation Yrotation Xrotation
					JOINT Neck1
					{
						OFFSET 0.000000 1.600000 0.340000
						CHANNELS 3 Zrotation Yrotation Xrotation
						JOINT Head
						{
							OFFSET 0.000000 1.667000 -0.240000
							CHANNELS 3 Zrotation Yrotation Xrotation
							End Site
							{
								OFFSET 0.000000 0.000000 0.000000
							}
						}
					}
				}
				JOINT LeftShoulder
				{
					OFFSET 0.000000 0.000000 0.000000
					CHANNELS 3 Zrotation Yrotation Xrotation
					JOINT LeftArm
					{
						OFFSET 2.700000 1.550000 -0.730000
						CHANNELS 3 Zrotation Yrotation Xrotation
						JOINT LeftForeArm
						{
							OFFSET 5.450000 0.000000 0.000000
							CHANNELS 3 Zrotation Yrotation Xrotation
							JOINT LeftHand
							{
								OFFSET 3.450000 0.000000 0.000000
								CHANNELS 3 Zrotation Yrotation Xrotation
								JOINT LeftHandIndex1
								{
									OFFSET 0.750000 0.000000 0.000000
									CHANNELS 3 Zrotation Yrotation Xrotation
									End Site
									{
										OFFSET 0.000000 0.000000 0.000000
									}
								}
							}
						}
					}
				}
				JOINT RightShoulder
				{
					OFFSET 0.000000 0.000000 0.000000
					CHANNELS 3 Zrotation Yrotation Xrotation
					JOINT RightArm
					{
						OFFSET -2.700000 1.550000 -0.730000
						CHANNELS 3 Zrotation Yrotation Xrotation
						JOINT RightForeArm
						{
							OFFSET -5.450000 0.000000 0.000000
							CHANNELS 3 Zrotation Yrotation Xrotation
							JOINT RightHand
							{
								OFFSET -3.450000 0.000000 0.000000
								CHANNELS 3 Zrotation Yrotation Xrotation
								JOINT RightHandIndex1
								{
									OFFSET -0.750000 0.000000 0.000000
									CHANNELS 3 Zrotation Yrotation Xrotation
									End Site
									{
										OFFSET 0.000000 0.000000 0.000000
									}
								}
							}
						}
					}
				}
			}
		}
	}
}
MOTION
Frames: 6
Frame Time: 0.016667
-0.044520 16.992510 -1.004300 -3.910905 -1.328246 4.867712 -15.051012 13.132375 2.623052 6.415398 -2.340024 -18.601490 -5.432607 6.658844 20.466666 -0.690886 4.733061 3.086483 0.256030 -0.106280 0.183860 18.405869 -10.912632 2.931484 -4.515775 4.885578 -25.230005 6.419667 -9.176723 39.072814 -0.324707 -6.170707 2.306013 0.204900 0.626030 0.161720 -3.918972 -1.104301 -6.895118 8.355206 -0.322630 5.739549 -2.585287 -0.003172 7.171000 0.533806 -2.020366 -6.846685 -3.989183 1.970078 26.163615 -1.819870 0.671830 -0.883550 -13.147472 -1.502595 1.440329 -46.222300 -14.599579 0.327788 -10.351676 -59.983095 3.965940 -3.985252 3.220556 0.188770 0.476710 -0.441690 0.179900 12.190339 3.127344 3.420265 51.827093 10.696573 -3.412226 22.190047 54.614446 8.196100 1.802435 -1.839864 -0.401700 0.315740 0.100330 -0.193360 
-0.046630 16.996510 -1.012760 -4.006555 -1.215716 4.766493 -15.048000 13.120816 2.612672 6.554104 -2.329412 -18.612222 -5.438053 6.681925 20.532222 -0.683737 4.730962 3.079856 0.270150 -0.085890 0.196560 18.411649 -10.888767 2.967942 -4.506364 5.043831 -25.540983 6.526718 -9.407388 39.915705 -0.363460 -6.313751 2.252331 0.211430 0.610360 0.162060 -3.933448 -1.104691 -6.925900 8.534188 -0.420642 5.957236 -2.691453 -0.079946 7.234271 0.571854 -2.000914 -6.879145 -3.971718 1.968161 26.300190 -1.882580 0.768840 -1.087860 -12.933115 -1.544090 1.435376 -45.916075 -14.918314 0.419320 -9.283470 -60.945521 3.500671 -3.968477 3.225949 0.188150 0.468670 -0.430630 0.179530 11.893709 3.136470 3.456062 51.730830 10.968387 -3.335929 21.960643 55.694195 8.327027 1.797392 -1.854748 -0.390830 0.309190 0.089490 -0.193450 
-0.050500 17.003110 -1.027810 -4.226827 -1.116290 4.593310 -15.037565 13.091528 2.590492 6.869823 -2.292869 -18.590741 -5.530823 6.753033 20.628344 -0.678189 4.742632 3.065154 0.298030 -0.046870 0.214590 18.428329 -10.845638 3.036928 -4.465409 5.358584 -26.088534 6.722497 -9.822050 41.421705 -0.434925 -6.576927 2.159649 0.229180 0.588230 0.159010 -3.974690 -1.086501 -6.978673 8.993399 -0.582956 6.331740 -2.970541 -0.196692 7.350503 0.631994 -2.021260 -6.898139 -4.019290 2.037283 26.500558 -1.880010 0.882060 -1.522100 -12.543988 -1.512096 1.382187 -45.345459 -15.485042 0.605197 -6.976704 -62.715279 2.403451 -3.937380 3.227458 0.191240 0.455840 -0.414530 0.184080 11.361430 3.079573 3.492432 51.509073 11.515674 -3.139229 21.562275 57.850702 8.616297 1.779363 -1.882623 -0.378210 0.305950 0.070950 -0.194250 
-0.055400 17.011120 -1.048200 -4.494500 -0.961673 4.354783 -15.027326 13.054336 2.563141 7.268371 -2.246703 -18.558092 -5.642860 6.820269 20.636477 -0.674407 4.753177 3.050224 0.322240 -0.012570 0.234500 18.446590 -10.791436 3.120706 -4.435385 5.738490 -26.718361 6.962404 -10.360102 43.259115 -0.522331 -6.913028 2.042497 0.244520 0.567210 0.159350 -4.018654 -1.066002 -7.043486 9.527678 -0.758543 6.778181 -3.288915 -0.315866 7.553958 0.758303 -1.967112 -6.940129 -3.944087 2.037424 26.751136 -2.037140 1.072210 -1.917290 -12.194737 -1.640614 1.330298 -44.495580 -16.233714 0.769700 -3.125689 -65.058968 0.324261 -3.907076 3.214784 0.192580 0.446870 -0.398310 0.185880 10.741193 3.112366 3.579483 51.060310 12.147557 -2.980447 20.669863 60.639965 8.761802 1.754083 -1.913174 -0.365800 0.301370 0.054890 -0.196300 
-0.061400 17.019520 -1.072440 -4.738492 -0.776624 4.115808 -15.020095 13.008743 2.534476 7.650246 -2.213800 -18.576736 -5.759322 6.886559 20.649759 -0.674745 4.770826 3.034072 0.346150 0.020100 0.251270 18.464983 -10.722749 3.212308 -4.503838 6.145014 -27.434182 7.314245 -11.027979 45.248448 -0.621375 -7.306285 1.906850 0.262450 0.551900 0.164410 -4.059170 -1.054688 -7.109908 10.029083 -0.957965 7.214440 -3.607589 -0.464996 7.803170 0.887813 -1.899948 -6.962817 -3.833778 2.090743 26.923289 -2.239260 1.314180 -2.238730 -11.756015 -1.763232 1.249889 -43.481580 -17.102042 0.950968 2.339904 -67.519633 -2.930833 -3.878566 3.186891 0.191280 0.444230 -0.385790 0.189620 10.033583 3.115680 3.653179 50.463324 12.902160 -2.795719 19.134720 63.894734 8.595225 1.716941 -1.949847 -0.354880 0.296250 0.041600 -0.198620 
-0.069170 17.026650 -1.098880 -5.004134 -0.735617 3.893465 -15.011162 12.960593 2.501508 8.027841 -2.177704 -18.618454 -5.792238 6.932652 20.683533 -0.687649 4.792352 3.017725 0.363190 0.044150 0.262160 18.486107 -10.659968 3.301872 -4.499902 6.557912 -28.104313 7.544393 -11.628431 47.151142 -0.711736 -7.685289 1.778815 0.281460 0.546360 0.167950 -4.104254 -1.026906 -7.166187 10.566297 -1.122098 7.590208 -3.928798 -0.587887 8.072463 1.019018 -1.804562 -6.945539 -3.651572 2.147149 26.983314 -2.451670 1.544270 -2.470930 -11.327086 -1.895507 1.118611 -42.275153 -18.040951 1.131060 9.546871 -69.858408 -7.549097 -3.853054 3.125081 0.188730 0.449110 -0.382840 0.190610 9.336480 3.100568 3.710298 49.706964 13.732984 -2.611348 16.675803 67.427617 7.820465 1.668058 -1.980700 -0.352660 0.295700 0.036410 -0.202820 
